<?xml version="1.0" encoding="utf-8"?>
<!-- Generator: Adobe Illustrator 25.2.1, SVG Export Plug-In . SVG Version: 6.00 Build 0)  -->
<svg version="1.1" id="Layer_1" xmlns="http://www.w3.org/2000/svg" xmlns:xlink="http://www.w3.org/1999/xlink" x="0px" y="0px"
	 viewBox="0 0 1080 504.7" style="enable-background:new 0 0 1080 504.7;" xml:space="preserve">
<style type="text/css">
	.st0{fill:#D82024;}
</style>
<g>
	<polygon class="st0" points="290.1,105.7 214.6,105.7 111.3,399 181.1,399 252.2,178.8 279.3,260.7 245.5,260.7 229,310.5 
		295.8,310.5 306.4,341.5 376.2,341.5 	"/>
	<g>
		<path d="M449,291.3h83.2v50.2H383.4V105.7H449V291.3z"/>
		<path d="M679,341.5l-73.9-103.4v103.4h-65.6V105.7h65.6v101.7l73.3-101.7H754l-86.7,114.4l91,121.5H679z"/>
		<path d="M830.8,105.7v136.8c0,12.7,3,22.5,8.9,29.4c5.9,6.9,14.9,10.4,26.9,10.4c12,0,21.1-3.5,27.3-10.5c6.1-7,9.2-16.8,9.2-29.3
			V105.7h65.6v136.8c0,21.6-4.6,40.1-13.7,55.4c-9.1,15.3-21.6,26.8-37.3,34.5c-15.7,7.7-33.2,11.5-52.4,11.5
			c-19.2,0-36.3-3.8-51.4-11.5c-15.1-7.7-26.9-19.1-35.5-34.3c-8.6-15.2-12.9-33.7-12.9-55.5V105.7H830.8z"/>
	</g>
</g>
</svg>
